<svg xmlns="http://www.w3.org/2000/svg" xmlns:xlink="http://www.w3.org/1999/xlink" version="1.1" id="Layer_1" x="0px" y="0px" viewBox="5.0 -10.0 100.0 135.0" enable-background="new 0 0 100 100" xml:space="preserve" height="100px" width="100px">
<path d="M50.1,10c22.1,0,40,17.9,40,40s-17.9,40-40,40s-40-17.9-40-40S28,10,50.1,10 M50.1,5c-24.9,0-45,20.1-45,45s20.1,45,45,45  s45-20.1,45-45S74.9,5,50.1,5L50.1,5z"/>
<path fill-rule="evenodd" clip-rule="evenodd" d="M71.1,53.2H53.2V71c0,1.7-1.4,3.2-3.2,3.2c-1.7,0-3.2-1.4-3.2-3.2V53.2H29  c-1.7,0-3.2-1.4-3.2-3.2c0-1.7,1.4-3.2,3.2-3.2h17.9V29c0-1.7,1.4-3.2,3.2-3.2c1.7,0,3.2,1.4,3.2,3.2v17.9h17.9  c1.7,0,3.2,1.4,3.2,3.2C74.3,51.7,72.9,53.2,71.1,53.2z"/>
<text x="0.0" y="117.5" font-size="5.0" font-weight="bold" font-family="Helvetica Neue, Helvetica, Arial-Unicode, Arial, Sans-serif" fill="#000000">Created by Andrew Baygulov</text><text x="0.0" y="122.5" font-size="5.0" font-weight="bold" font-family="Helvetica Neue, Helvetica, Arial-Unicode, Arial, Sans-serif" fill="#000000">from the Noun Project</text></svg>