<svg xmlns="http://www.w3.org/2000/svg" xmlns:xlink="http://www.w3.org/1999/xlink" version="1.1" id="Layer_1" x="0px" y="0px" viewBox="5.0 -10.0 100.0 135.0" enable-background="new 0 0 100 100" xml:space="preserve" height="100px" width="100px">
<g>
	<g>
		<path d="M49.9,5.2C25.2,5.2,5.1,25.3,5.1,50.1c0,24.8,20.1,44.8,44.8,44.8c24.8,0,44.8-20.1,44.8-44.8    C94.8,25.3,74.7,5.2,49.9,5.2z M49.9,89.3c-21.6,0-39.2-17.6-39.2-39.2c0-21.6,17.6-39.2,39.2-39.2s39.3,17.6,39.3,39.2    C89.2,71.7,71.5,89.3,49.9,89.3z M63,51.9L52.7,62.2V30.4c0-1.5-1.3-2.8-2.8-2.8c-1.5,0-2.8,1.3-2.8,2.8V62L36.9,51.9    c-1.1-1.1-2.9-1.1-4,0c-1.1,1.1-1.1,2.9,0,4l17,16.6l17-16.6c0.5-0.5,0.8-1.3,0.8-2c0-0.7-0.3-1.4-0.8-2    C65.9,50.8,64.1,50.8,63,51.9z"/>
	</g>
</g>
<text x="0.0" y="117.5" font-size="5.0" font-weight="bold" font-family="Helvetica Neue, Helvetica, Arial-Unicode, Arial, Sans-serif" fill="#000000">Created by Andrew Baygulov</text><text x="0.0" y="122.5" font-size="5.0" font-weight="bold" font-family="Helvetica Neue, Helvetica, Arial-Unicode, Arial, Sans-serif" fill="#000000">from the Noun Project</text></svg>