<svg xmlns="http://www.w3.org/2000/svg" xmlns:xlink="http://www.w3.org/1999/xlink" version="1.1" id="Layer_1" x="0px" y="0px" width="100px" height="100px" viewBox="5.0 -10.0 100.0 135.0" enable-background="new 0 0 100 100" xml:space="preserve">
<g>
	<path d="M46.358,58.626c-0.575,0-1.136-0.267-1.5-0.713c-0.36-0.443-0.501-1.022-0.385-1.59l1.568-7.702h-4.1   c-0.39,0-0.753-0.197-0.966-0.524c-0.212-0.327-0.245-0.739-0.086-1.095l5.509-12.379c0.185-0.416,0.597-0.684,1.052-0.684h8.521   c0.395,0,0.762,0.202,0.973,0.535s0.237,0.751,0.069,1.107l-2.375,5.036h4.48c0.441,0,0.844,0.252,1.036,0.649   s0.141,0.869-0.133,1.216L47.797,57.959c-0.026,0.034-0.056,0.066-0.086,0.098C47.347,58.424,46.866,58.626,46.358,58.626z    M43.715,46.318h3.736c0.346,0,0.673,0.155,0.892,0.423s0.306,0.619,0.236,0.958l-1.523,7.482l9.687-12.261h-3.919   c-0.395,0-0.762-0.202-0.973-0.535s-0.237-0.751-0.069-1.107l2.375-5.036h-5.957L43.715,46.318z"/>
</g>
<text x="0.0" y="117.5" font-size="5.0" font-weight="bold" font-family="Helvetica Neue, Helvetica, Arial-Unicode, Arial, Sans-serif" fill="#000000">Created by MONTANA RUCOBO</text><text x="0.0" y="122.5" font-size="5.0" font-weight="bold" font-family="Helvetica Neue, Helvetica, Arial-Unicode, Arial, Sans-serif" fill="#000000">from the Noun Project</text></svg>