<svg xmlns="http://www.w3.org/2000/svg" xmlns:xlink="http://www.w3.org/1999/xlink" version="1.1" x="0px" y="0px" width="100px" height="100px" viewBox="-341.0 246.0 100.0 135.0" enable-background="new -346 256 100 100" xml:space="preserve">
<g id="Layer_1">
	<polygon points="-282.771,329.151 -287.75,331.628 -276.352,343.688 -266.983,334.995  "/>
	<polygon points="-295.467,356.12 -289.304,346.879 -295.538,343.27 -302.181,348.036  "/>
	<polygon points="-319.634,291.194 -332.517,289.953 -326.186,280.942  "/>
	<polygon points="-271.723,314.18 -283.298,319.968 -282.719,308.97  "/>
</g>
<g id="Layer_2">
	<path d="M-291.038,262.323c0.328-0.049,0.572-0.083,0.98-0.144c0.981-0.142,2.058-0.216,3.073-0.114   c0.749-0.024,1.52,0.114,2.282,0.168c1.032-2.07,2.148-4.151,3.274-6.154c0,0,0,0-0.011-0.08c2.596,0.625,5.075,1.599,7.465,3.087   c-0.592,2.256-1.277,4.445-1.96,6.632c0.654,0.487,1.312,0.979,1.886,1.479c0.682,0.649,1.36,1.305,1.888,2.061   c0.28,0.211,0.489,0.513,0.689,0.736c2.243-0.66,4.474-1.401,6.715-2.059c0.55,0.922,1.114,1.922,1.596,2.938   c0.117,0.232,0.245,0.551,0.282,0.793c0.213,0.306,0.33,0.535,0.365,0.782c0.387,0.946,0.694,1.904,1.001,2.861   c-2.077,1.219-4.095,2.263-6.117,3.309c0.06,0.408,0.12,0.819,0.168,1.148c0.023,0.164,0.036,0.242,0.047,0.327   c0.062,0.991,0.111,1.902,0.079,2.825c0.021,0.75-0.114,1.522-0.253,2.293c2.072,1.032,4.154,2.15,6.142,3.197   c0.094,0.072,0.094,0.072,0.094,0.072c-0.09,0.511-0.183,1.028-0.368,1.469c-0.21,0.865-0.51,1.659-0.892,2.47   c-0.409,1.229-0.989,2.396-1.746,3.51c0,0,0,0-0.082,0.012c-2.186-0.686-4.361-1.288-6.551-1.969   c-0.486,0.653-0.904,1.214-1.49,1.802c-0.553,0.739-1.278,1.426-2.02,2.035l-6.733-8.083c1.237-1.022,2.212-2.324,2.874-3.953   c0.978-2.478,0.937-5.063-0.086-7.503c-1.12-2.508-2.887-4.341-5.449-5.301c-2.572-1.049-5.075-1.016-7.582,0.099   c-2.522,1.035-4.261,2.875-5.234,5.355c-1.032,2.652-1.005,5.155,0.1,7.583c1.035,2.522,2.887,4.338,5.366,5.312   c1.015,0.415,2.018,0.61,3.015,0.69l2.055,10.554c-0.676,0.063-1.373,0.086-2.099,0.015c-0.828,0.036-1.681-0.087-2.535-0.215   c-1.033,2.071-2.08,4.06-3.195,6.144c-2.598-0.629-5.088-1.683-7.452-3.007c0,0,0,0-0.014-0.083   c0.685-2.188,1.289-4.364,1.957-6.634c-0.56-0.417-1.04-0.846-1.603-1.267c-0.761-0.641-1.463-1.457-2.179-2.354   c-0.2-0.222-0.411-0.524-0.704-0.823c-2.148,0.733-4.39,1.396-6.63,2.055c-0.539-0.839-0.999-1.694-1.387-2.638   c-0.116-0.232-0.351-0.702-0.636-1.497c-0.492-1.097-0.823-2.217-1.14-3.254c2.076-1.223,4.081-2.346,6.186-3.404   c-0.049-0.329-0.095-0.654-0.144-0.98l-0.012-0.084c-0.143-0.979-0.191-1.892-0.159-2.815c0.045-0.841,0.171-1.694,0.298-2.55   c0,0-0.081,0.011-0.093-0.068c-2.072-1.037-4.154-2.148-6.225-3.188c0.187-0.443,0.292-0.874,0.406-1.226   c0.208-0.863,0.51-1.662,0.81-2.456c0.561-1.333,1.211-2.598,1.955-3.792c2.255,0.591,4.441,1.273,6.71,1.946   c0.422-0.558,0.851-1.039,1.272-1.604c0.651-0.678,1.385-1.371,2.05-1.967c0.085-0.012,0.153-0.105,0.235-0.118   c0.221-0.2,0.524-0.41,0.745-0.608c-0.739-2.231-1.4-4.471-2.143-6.701c0.922-0.552,1.855-1.026,2.872-1.503   c0.231-0.118,0.467-0.237,0.782-0.367c0.232-0.115,0.478-0.15,0.782-0.364c1.039-0.313,2.067-0.717,3.037-0.943   C-293.222,258.213-292.165,260.316-291.038,262.323z"/>
	<path d="M-301.65,320.194c0.089-0.269,0.11-0.56,0.042-0.807c0.058-0.569,0.038-1.113-0.01-1.705l-7.047,0.307   c0.182,1.032,0.12,2.068-0.242,3.158c-0.556,1.683-1.652,2.962-3.261,3.77c-1.635,0.876-3.312,0.99-4.972,0.368   c-1.771-0.513-2.98-1.587-3.834-3.287c-0.81-1.609-0.924-3.289-0.368-4.97c0.58-1.749,1.651-2.96,3.286-3.836   c1.679-0.787,3.289-0.926,5.036-0.346c0.831,0.274,1.552,0.693,2.178,1.229l4.766-5.082c-0.423-0.368-0.867-0.732-1.308-0.993   c-0.246-0.158-0.428-0.291-0.605-0.426c0.331-1.456,0.687-2.979,0.976-4.526c-0.58-0.268-1.164-0.535-1.837-0.758   c-0.135-0.045-0.538-0.178-1.007-0.334c-0.74-0.244-1.502-0.425-2.285-0.534c-0.601,1.369-1.229,2.802-1.852,4.238   c-0.224-0.002-0.447,0-0.67-0.002c-0.651-0.066-1.253-0.041-1.881,0.05c-0.537,0.044-1.098,0.158-1.68,0.336   c0.022-0.067,0.022-0.067-0.044-0.09c-0.764-1.295-1.595-2.615-2.448-3.868c-0.247,0.067-0.492,0.135-0.829,0.249   c-0.515,0.199-1.052,0.473-1.522,0.763c-0.804,0.404-1.632,0.875-2.416,1.438c0.562,1.454,1.125,2.908,1.71,4.298   c-0.022,0.066-0.022,0.066-0.022,0.066c-0.314,0.268-0.648,0.604-0.983,0.94c-0.381,0.472-0.828,0.919-1.14,1.414   c-0.022,0.066-0.044,0.134-0.111,0.112c-0.088,0.269-0.224,0.448-0.336,0.559c-1.524-0.354-3.047-0.712-4.503-1.042   c-0.358,0.626-0.581,1.3-0.87,1.949c-0.067,0.201-0.134,0.402-0.2,0.605c-0.044,0.135-0.112,0.334-0.179,0.537   c-0.157,0.695-0.379,1.366-0.467,2.084c1.369,0.602,2.802,1.226,4.237,1.851c0.001,0.225,0.001,0.449-0.066,0.65   c0,0.673,0,1.343,0.072,2.035c0.066,0.473,0.179,1.031,0.249,1.503c-1.231,0.784-2.551,1.613-3.872,2.447   c-0.022,0.068-0.022,0.068-0.022,0.068c0.565,1.676,1.395,3.219,2.451,4.765l0.021-0.067c1.434-0.495,2.888-1.057,4.273-1.643   c0.384,0.425,0.72,0.759,1.057,1.096c0.45,0.448,0.896,0.894,1.458,1.229c0.18,0.133,0.357,0.267,0.56,0.334   c-0.356,1.523-0.71,3.046-1,4.592c0.628,0.36,1.299,0.582,2.02,0.893c0.201,0.067,0.401,0.136,0.536,0.178   c0.2,0.067,0.401,0.136,0.537,0.18c0.695,0.155,1.301,0.356,1.949,0.423c0.67-1.346,1.295-2.779,1.854-4.238   c0.267,0.09,0.491,0.09,0.783,0.111c0.067,0.023,0.135,0.046,0.222,0c0.583,0.046,1.212-0.047,1.839-0.136   c0.537-0.048,1.006-0.115,1.499-0.251c0.828,1.322,1.617,2.55,2.447,3.871c0,0,0,0,0.046,0.09c0.334-0.113,0.669-0.228,0.936-0.362   c0.584-0.18,1.122-0.448,1.591-0.74c0.783-0.338,1.477-0.854,2.235-1.348c0,0,0,0-0.068-0.021c-0.491-1.436-1.078-2.821-1.64-4.275   c0.402-0.312,0.829-0.694,1.164-1.034c0.445-0.448,0.847-0.986,1.16-1.48c0.224-0.223,0.381-0.468,0.448-0.671   c1.523,0.357,3.046,0.711,4.523,0.978c0.36-0.629,0.648-1.278,0.893-2.019c0.335-1.008,0.603-2.036,0.712-3.046   C-298.85,321.42-300.22,320.818-301.65,320.194z"/>
</g>
<text x="-346.0" y="373.5" font-size="5.0" font-weight="bold" font-family="Helvetica Neue, Helvetica, Arial-Unicode, Arial, Sans-serif" fill="#000000">Created by Luis Prado</text><text x="-346.0" y="378.5" font-size="5.0" font-weight="bold" font-family="Helvetica Neue, Helvetica, Arial-Unicode, Arial, Sans-serif" fill="#000000">from the Noun Project</text></svg>