<svg xmlns="http://www.w3.org/2000/svg" xmlns:xlink="http://www.w3.org/1999/xlink" xmlns:a="http://ns.adobe.com/AdobeSVGViewerExtensions/3.0/" version="1.1" x="0px" y="0px" width="100px" height="100px" viewBox="-0.551 -45.339 100.0 135.0" enable-background="new -5.551 -35.339 100 100" xml:space="preserve">
<defs>
</defs>
<path d="M88.898,27.269c0,1.135-0.919,2.054-2.055,2.054H2.055C0.921,29.322,0,28.403,0,27.269V2.056C0,0.921,0.921,0,2.055,0  h84.789c1.136,0,2.055,0.921,2.055,2.056V27.269z M85.126,5.122c0-0.57-0.435-1.03-0.972-1.03H5.007c-0.538,0-0.974,0.46-0.974,1.03  v19.305c0,0.569,0.436,1.032,0.974,1.032h79.147c0.537,0,0.972-0.463,0.972-1.032V5.122z M81.146,8.562  c0.168-0.289-0.103-0.764-0.607-1.06l-0.433-0.255c-0.506-0.296-1.053-0.302-1.222-0.012l-7.926,13.528  c-0.169,0.287,0.102,0.761,0.607,1.056l0.432,0.256c0.507,0.297,1.053,0.304,1.223,0.011L81.146,8.562z M79.277,18.462  c-1.063,0-1.92,0.859-1.92,1.92c0,1.06,0.857,1.921,1.92,1.921c1.059,0,1.919-0.861,1.919-1.921  C81.196,19.321,80.336,18.462,79.277,18.462z M72.828,7.022c-1.062,0-1.919,0.857-1.919,1.92c0,1.06,0.857,1.92,1.919,1.92  c1.059,0,1.92-0.86,1.92-1.92C74.748,7.88,73.887,7.022,72.828,7.022z"/>
<text x="-5.551" y="82.161" font-size="5.0" font-weight="bold" font-family="Helvetica Neue, Helvetica, Arial-Unicode, Arial, Sans-serif" fill="#000000">Created by Lucid Formation</text><text x="-5.551" y="87.161" font-size="5.0" font-weight="bold" font-family="Helvetica Neue, Helvetica, Arial-Unicode, Arial, Sans-serif" fill="#000000">from the Noun Project</text></svg>