<svg xmlns="http://www.w3.org/2000/svg" xmlns:xlink="http://www.w3.org/1999/xlink" version="1.1" x="0px" y="0px" width="96px" height="96px" viewBox="4.8 -9.6 96.0 129.6" enable-background="new 0 0 96 96" xml:space="preserve">
<g id="Base" display="none">
</g>
<g id="Dibujo">
	<g>
		<path d="M72,10H24c-1.104,0-2,0.896-2,2v72c0,1.104,0.896,2,2,2h48c1.104,0,2-0.896,2-2V12C74,10.896,73.104,10,72,10z M70,82H26    V14h44V82z"/>
		<path d="M42,63h12c0.669,0,1.293-0.334,1.664-0.891l4-6c0,0-0.007-0.002-0.008-0.002c0.013-0.02,0.032-0.035,0.045-0.056    c0.365-0.589,0.397-1.326,0.088-1.946L56,46.527V35c0-1.104-0.896-2-2-2H42c-1.104,0-2,0.896-2,2v26C40,62.104,40.896,63,42,63z     M52.764,49l2,4h-7.528l-2-4H52.764z M52.93,59h-7.193l1.333-2h7.193L52.93,59z M52,37v8h-8v-8H52z"/>
	</g>
</g>
<text x="0.0" y="112.8" font-size="4.8" font-weight="bold" font-family="Helvetica Neue, Helvetica, Arial-Unicode, Arial, Sans-serif" fill="#000000">Created by Yorlmar Campos</text><text x="0.0" y="117.6" font-size="4.8" font-weight="bold" font-family="Helvetica Neue, Helvetica, Arial-Unicode, Arial, Sans-serif" fill="#000000">from the Noun Project</text></svg>